# xmcd
#
# Track frame offsets:
#	150
#	20640
#	30537
#	42795
#	54265
#	64505
#	77775
#	85887
#	98532
#	109602
#	116962
#	127767
#	140065
#
# Disc length: 2007 seconds
#
# Revision: 0
# Processed by: cddbd v1.4b41PL2 Copyright (c) Steve Scherf et al.
# Submitted via: EZCDDA 4.3.3.2
#
DISCID=a007d50d
DTITLE=Flatt and Scruggs - Live At Vanderbilt University
DYEAR=1900
DGENRE=
TTITLE0=Lost All My Money
TTITLE1=Maggie Blues
TTITLE2=Steamboat Whistle Blues
TTITLE3=Paul and Silas
TTITLE4=Cannonball Blues
TTITLE5=You Are My Flower
TTITLE6=Old Leather Britches
TTITLE7=Across The Blue Ridge Mountains
TTITLE8=Old Folks
TTITLE9=Going Back To Harlem
TTITLE10=Poor Rebel Soldier
TTITLE11=No Hiding Place Down Here
TTITLE12=Going Up Cripple Creek
EXTD=
EXTT0=
EXTT1=
EXTT2=
EXTT3=
EXTT4=
EXTT5=
EXTT6=
EXTT7=
EXTT8=
EXTT9=
EXTT10=
EXTT11=
EXTT12=
PLAYORDER=
